# Blender v2.71 (sub 0) OBJ File: '42.blend'
# www.blender.org
mtllib 42.mtl
o Cube
v 0.227474 -1.114043 -1.671660
v 0.227474 -0.642917 0.037620
v -0.232407 -0.642917 0.037620
v -0.232407 -1.114043 -1.671660
v 0.227475 1.222569 -1.671659
v 0.227474 1.222569 -1.202664
v -0.232407 1.222569 -1.202665
v -0.232407 1.222569 -1.671660
v 0.227474 -0.237729 0.037620
v -0.232407 -0.237729 0.037620
v 0.227475 -0.202606 -1.671659
v 0.227475 -0.191909 -0.507541
v -0.232407 -0.202606 -1.671660
v -0.232407 -0.191909 -0.507541
v 0.227474 -1.119982 -1.308283
v 0.227474 -0.642917 -1.327747
v -0.232407 -0.642917 -1.327747
v -0.232407 -1.119982 -1.308284
v -0.232335 -0.628591 -1.904001
v -0.232335 -0.628591 -2.843098
v 0.218772 -0.628591 -2.843098
v 0.218772 -0.628591 -1.904001
v -0.232335 1.221964 -1.904001
v -0.232335 1.221964 -2.843098
v 0.218772 1.221964 -2.843098
v 0.218772 1.221964 -1.904001
v -0.232335 -0.027185 -1.904001
v -0.232335 0.654079 -2.420991
v -0.232335 1.206855 -2.396977
v -0.232335 0.609923 -1.904001
v 0.218772 0.609923 -1.904001
v 0.218772 1.206856 -2.396977
v 0.218772 0.654079 -2.420991
v 0.218772 -0.027185 -1.904001
v -0.232335 0.736721 -2.843098
v -0.232335 0.035819 -2.406903
v -0.232335 -0.582062 -2.415797
v -0.232335 0.027064 -2.843098
v 0.218772 0.736721 -2.843098
v 0.218772 0.035819 -2.406903
v 0.218772 -0.582062 -2.415797
v 0.218772 0.027064 -2.843098
usemtl Material
s off
f 16 2 3 17
f 5 8 7 6
f 29 30 23
f 9 6 7 10
f 14 13 17
f 11 1 4 13
f 2 9 10 3
f 5 12 14 8
f 12 11 13 14
f 1 15 18 4
f 15 16 17 18
f 38 42 21 20
f 33 39 25 32
f 34 27 19 22
f 19 20 21 22
f 26 25 24 23
f 26 23 30 31
f 31 30 29 32
f 32 29 28 33
f 33 28 27 34
f 24 25 39 35
f 35 39 40 36
f 36 40 41 37
f 37 41 42 38
f 26 31 32
f 37 38 20
f 21 42 41
f 12 5 6
f 25 26 32
f 22 21 41
f 8 14 7
f 28 36 27
f 10 14 17 3
f 33 40 39
f 40 33 34
f 11 16 15 1
f 14 10 7
f 2 16 12 9
f 11 12 16
f 40 34 22 41
f 12 6 9
f 18 17 13 4
f 36 28 35
f 37 20 19
f 29 23 24
f 19 27 36 37
f 24 35 28 29
